<?xml version="1.0" standalone="no"?>
<!DOCTYPE svg PUBLIC "-//W3C//DTD SVG 1.1//EN" "http://www.w3.org/Graphics/SVG/1.1/DTD/svg11.dtd">
<svg xmlns="http://www.w3.org/2000/svg" id="Layer_1" data-name="Layer 1" viewBox="0 0 89.89 89.89" width="89.88999938964844" height="89.88999938964844">
  <defs>
    <style>
      .cls-1 {
        fill: #231f20;
      }
    </style>
  </defs>
  <path class="cls-1" d="M81.72,3c2.85,0,5.17,2.32,5.17,5.17v73.55c0,2.85-2.32,5.17-5.17,5.17H8.17c-2.85,0-5.17-2.32-5.17-5.17V8.17c0-2.85,2.32-5.17,5.17-5.17h73.55M81.72,0H8.17C3.66,0,0,3.66,0,8.17v73.55c0,4.51,3.66,8.17,8.17,8.17h73.55c4.51,0,8.17-3.66,8.17-8.17V8.17c0-4.51-3.66-8.17-8.17-8.17h0Z"/>
  <g>
    <path class="cls-1" d="M45.16,77.81c-.36,0-.71-.13-1-.38l-20.83-18.59c-.49-.44-.64-1.15-.36-1.75L43.35,12.95c.24-.53.77-.87,1.35-.87h.01c.58,0,1.1.33,1.35.85l21.01,43.84c.29.6.15,1.31-.34,1.75l-20.56,18.88c-.29.26-.65.4-1.01.4ZM26.16,57.34l18.98,16.94,18.74-17.21-19.15-39.96-18.57,40.23Z"/>
    <path class="cls-1" d="M17.56,73.29c-.39,0-.77-.15-1.06-.44-.45-.45-.57-1.13-.3-1.7L43.59,12.94c.3-.64,1-.98,1.68-.83.69.15,1.17.76,1.17,1.46v45.16c0,.58-.33,1.11-.85,1.35l-27.38,13.05c-.21.1-.43.15-.64.15ZM43.44,20.29l-22.74,48.34,22.74-10.83V20.29ZM44.94,58.74h0,0Z"/>
    <path class="cls-1" d="M72.33,73.29c-.22,0-.44-.05-.65-.15l-27.38-13.05c-.52-.25-.85-.78-.85-1.35V13.58c0-.7.49-1.31,1.17-1.46.69-.15,1.39.19,1.68.83l27.38,58.21c.27.57.15,1.25-.3,1.7-.29.29-.67.44-1.06.44ZM46.44,57.8l22.74,10.83-22.74-48.34v37.5Z"/>
    <path class="cls-1" d="M57.66,66.32c-.22,0-.44-.05-.65-.15l-12.71-6.08c-.52-.25-.85-.78-.85-1.35V13.58c0-.7.49-1.31,1.17-1.46.69-.15,1.39.19,1.68.83l20.69,43.99c.28.6.14,1.31-.35,1.75l-7.98,7.25c-.28.26-.64.39-1.01.39ZM46.44,57.8l10.95,5.24,6.42-5.83-17.36-36.91v37.5Z"/>
    <path class="cls-1" d="M32.24,66.32c-.37,0-.73-.13-1.01-.39l-7.98-7.25c-.49-.44-.63-1.15-.35-1.75L43.59,12.94c.3-.64,1-.98,1.68-.83.69.15,1.17.76,1.17,1.46v45.16c0,.58-.33,1.1-.85,1.35l-12.71,6.08c-.21.1-.43.15-.65.15ZM26.08,57.21l6.41,5.83,10.95-5.24V20.29l-17.36,36.91ZM44.95,58.74h0,0Z"/>
  </g>
</svg>